<svg xmlns="http://www.w3.org/2000/svg" width="820" height="597" viewBox="0 0 820 597">
<defs><marker id="arrowhead" markerWidth="10" markerHeight="7" refX="10" refY="3.5" orient="auto"><polygon points="0 0, 10 3.5, 0 7" fill="#455a64" /></marker></defs>
<rect x="0" y="0" width="820" height="30" fill="#1a2744" />
<text x="10" y="20" font-family="Arial,Helvetica,sans-serif" font-size="14" font-weight="bold" fill="#ffffff">Authentication Architecture</text>
<rect x="255.0" y="50.0" width="140.0" height="37.0" rx="6" fill="#e3f2fd" stroke="#1565c0" stroke-width="1.2" />
<text x="325.0" y="72.5" text-anchor="middle" font-family="Arial,Helvetica,sans-serif" font-size="11" font-weight="700" fill="#1a2744">SSH / HTTPS Login</text>
<rect x="425.0" y="50.0" width="140.0" height="37.0" rx="6" fill="#e8eaf6" stroke="#3949ab" stroke-width="1.2" />
<text x="495.0" y="72.5" text-anchor="middle" font-family="Arial,Helvetica,sans-serif" font-size="11" font-weight="700" fill="#1a2744">FC Host HBA</text>
<rect x="255.0" y="127.0" width="140.0" height="54.0" rx="6" fill="#e8f5e9" stroke="#2e7d32" stroke-width="1.2" />
<text x="325.0" y="158.0" text-anchor="middle" font-family="Arial,Helvetica,sans-serif" font-size="11" font-weight="700" fill="#1a2744">AAA method list</text>
<rect x="425.0" y="127.0" width="140.0" height="54.0" rx="6" fill="#fff8e1" stroke="#f57f17" stroke-width="1.2" />
<text x="495.0" y="150.0" text-anchor="middle" font-family="Arial,Helvetica,sans-serif" font-size="11" font-weight="700" fill="#1a2744">FC-SP DHCHAP</text>
<text x="495.0" y="166.0" text-anchor="middle" font-family="Arial,Helvetica,sans-serif" font-size="11" font-weight="400" fill="#1a2744">enabled?</text>
<rect x="81.7" y="221.0" width="140.0" height="54.0" rx="6" fill="#fce4ec" stroke="#c62828" stroke-width="1.2" />
<text x="151.7" y="244.0" text-anchor="middle" font-family="Arial,Helvetica,sans-serif" font-size="11" font-weight="700" fill="#1a2744">TACACS+ Server</text>
<text x="151.7" y="260.0" text-anchor="middle" font-family="Arial,Helvetica,sans-serif" font-size="11" font-weight="400" fill="#1a2744">(ISE / ACS)</text>
<rect x="251.7" y="221.0" width="140.0" height="54.0" rx="6" fill="#e3f2fd" stroke="#1565c0" stroke-width="1.2" />
<text x="321.7" y="252.0" text-anchor="middle" font-family="Arial,Helvetica,sans-serif" font-size="11" font-weight="700" fill="#1a2744">RADIUS Server</text>
<rect x="421.7" y="221.0" width="140.0" height="54.0" rx="6" fill="#e8eaf6" stroke="#3949ab" stroke-width="1.2" />
<text x="491.7" y="244.0" text-anchor="middle" font-family="Arial,Helvetica,sans-serif" font-size="11" font-weight="700" fill="#1a2744">Local Account</text>
<text x="491.7" y="260.0" text-anchor="middle" font-family="Arial,Helvetica,sans-serif" font-size="11" font-weight="400" fill="#1a2744">(break-glass only)</text>
<rect x="591.7" y="221.0" width="146.5" height="54.0" rx="6" fill="#e8f5e9" stroke="#2e7d32" stroke-width="1.2" />
<text x="665.0" y="244.0" text-anchor="middle" font-family="Arial,Helvetica,sans-serif" font-size="11" font-weight="700" fill="#1a2744">DHCHAP challenge</text>
<text x="665.0" y="260.0" text-anchor="middle" font-family="Arial,Helvetica,sans-serif" font-size="11" font-weight="400" fill="#1a2744">(shared secret by pWWN)</text>
<rect x="162.2" y="315.0" width="155.6" height="54.0" rx="6" fill="#fff8e1" stroke="#f57f17" stroke-width="1.2" />
<text x="240.0" y="338.0" text-anchor="middle" font-family="Arial,Helvetica,sans-serif" font-size="11" font-weight="700" fill="#1a2744">Assign NX-OS Role</text>
<text x="240.0" y="354.0" text-anchor="middle" font-family="Arial,Helvetica,sans-serif" font-size="11" font-weight="400" fill="#1a2744">(network-admin / operator)</text>
<rect x="347.8" y="315.0" width="140.0" height="54.0" rx="6" fill="#fce4ec" stroke="#c62828" stroke-width="1.2" />
<text x="417.8" y="338.0" text-anchor="middle" font-family="Arial,Helvetica,sans-serif" font-size="11" font-weight="700" fill="#1a2744">Device joins fabric</text>
<text x="417.8" y="354.0" text-anchor="middle" font-family="Arial,Helvetica,sans-serif" font-size="11" font-weight="400" fill="#1a2744">(FCID assigned)</text>
<rect x="517.8" y="315.0" width="140.0" height="54.0" rx="6" fill="#e3f2fd" stroke="#1565c0" stroke-width="1.2" />
<text x="587.8" y="338.0" text-anchor="middle" font-family="Arial,Helvetica,sans-serif" font-size="11" font-weight="700" fill="#1a2744">FLOGI rejected</text>
<text x="587.8" y="354.0" text-anchor="middle" font-family="Arial,Helvetica,sans-serif" font-size="11" font-weight="400" fill="#1a2744">Device cannot join</text>
<rect x="246.1" y="409.0" width="140.0" height="54.0" rx="6" fill="#e8eaf6" stroke="#3949ab" stroke-width="1.2" />
<text x="316.1" y="440.0" text-anchor="middle" font-family="Arial,Helvetica,sans-serif" font-size="11" font-weight="700" fill="#1a2744">Accounting"]</text>
<rect x="416.1" y="409.0" width="157.8" height="54.0" rx="6" fill="#e8f5e9" stroke="#2e7d32" stroke-width="1.2" />
<text x="495.0" y="432.0" text-anchor="middle" font-family="Arial,Helvetica,sans-serif" font-size="11" font-weight="700" fill="#1a2744">"Command Authorization</text>
<text x="495.0" y="448.0" text-anchor="middle" font-family="Arial,Helvetica,sans-serif" font-size="11" font-weight="400" fill="#1a2744"></text>
<rect x="340.0" y="503.0" width="140.0" height="54.0" rx="6" fill="#fff8e1" stroke="#f57f17" stroke-width="1.2" />
<text x="410.0" y="526.0" text-anchor="middle" font-family="Arial,Helvetica,sans-serif" font-size="11" font-weight="700" fill="#1a2744">Syslog / SIEM</text>
<text x="410.0" y="542.0" text-anchor="middle" font-family="Arial,Helvetica,sans-serif" font-size="11" font-weight="400" fill="#1a2744">(audit trail)</text>
<line x1="495.0" y1="87.0" x2="495.0" y2="127.0" stroke="#455a64" stroke-width="1.5" marker-end="url(#arrowhead)" />
<rect x="477.2" y="98.0" width="35.5" height="14" fill="#ffffff" opacity="0.85"/>
<text x="495.0" y="109.0" text-anchor="middle" font-family="Arial,Helvetica,sans-serif" font-size="8.5" fill="#546e7a">FLOGI</text>
<line x1="325.0" y1="87.0" x2="325.0" y2="127.0" stroke="#455a64" stroke-width="1.5" marker-end="url(#arrowhead)" />
<line x1="325.0" y1="181.0" x2="321.7" y2="221.0" stroke="#455a64" stroke-width="1.5" marker-end="url(#arrowhead)" />
<rect x="275.1" y="192.0" width="96.5" height="14" fill="#ffffff" opacity="0.85"/>
<text x="323.4" y="203.0" text-anchor="middle" font-family="Arial,Helvetica,sans-serif" font-size="8.5" fill="#546e7a">fallback if unreachable</text>
<line x1="325.0" y1="181.0" x2="491.7" y2="221.0" stroke="#455a64" stroke-width="1.5" marker-end="url(#arrowhead)" />
<rect x="381.9" y="192.0" width="53.0" height="14" fill="#ffffff" opacity="0.85"/>
<text x="408.4" y="203.0" text-anchor="middle" font-family="Arial,Helvetica,sans-serif" font-size="8.5" fill="#546e7a">last resort</text>
<line x1="495.0" y1="181.0" x2="665.0" y2="221.0" stroke="#455a64" stroke-width="1.5" marker-end="url(#arrowhead)" />
<rect x="538.8" y="192.0" width="82.4" height="14" fill="#ffffff" opacity="0.85"/>
<text x="580.0" y="203.0" text-anchor="middle" font-family="Arial,Helvetica,sans-serif" font-size="8.5" fill="#546e7a">Yes — authenticate</text>
<line x1="325.0" y1="181.0" x2="151.7" y2="221.0" stroke="#455a64" stroke-width="1.5" marker-end="url(#arrowhead)" />
<rect x="218.2" y="192.0" width="40.3" height="14" fill="#ffffff" opacity="0.85"/>
<text x="238.4" y="203.0" text-anchor="middle" font-family="Arial,Helvetica,sans-serif" font-size="8.5" fill="#546e7a">primary</text>
<line x1="495.0" y1="181.0" x2="417.8" y2="315.0" stroke="#455a64" stroke-width="1.5" marker-end="url(#arrowhead)" />
<rect x="433.4" y="239.0" width="46.0" height="14" fill="#ffffff" opacity="0.85"/>
<text x="456.4" y="250.0" text-anchor="middle" font-family="Arial,Helvetica,sans-serif" font-size="8.5" fill="#546e7a">No — open</text>
<line x1="665.0" y1="275.0" x2="587.8" y2="315.0" stroke="#455a64" stroke-width="1.5" marker-end="url(#arrowhead)" />
<rect x="614.8" y="286.0" width="23.3" height="14" fill="#ffffff" opacity="0.85"/>
<text x="626.4" y="297.0" text-anchor="middle" font-family="Arial,Helvetica,sans-serif" font-size="8.5" fill="#546e7a">fail</text>
<line x1="491.7" y1="275.0" x2="240.0" y2="315.0" stroke="#455a64" stroke-width="1.5" marker-end="url(#arrowhead)" />
<rect x="352.4" y="286.0" width="27.0" height="14" fill="#ffffff" opacity="0.85"/>
<text x="365.9" y="297.0" text-anchor="middle" font-family="Arial,Helvetica,sans-serif" font-size="8.5" fill="#546e7a">auth</text>
<line x1="151.7" y1="275.0" x2="240.0" y2="315.0" stroke="#455a64" stroke-width="1.5" marker-end="url(#arrowhead)" />
<rect x="153.6" y="286.0" width="84.5" height="14" fill="#ffffff" opacity="0.85"/>
<text x="195.9" y="297.0" text-anchor="middle" font-family="Arial,Helvetica,sans-serif" font-size="8.5" fill="#546e7a">auth + role AV-pair</text>
<line x1="665.0" y1="275.0" x2="417.8" y2="315.0" stroke="#455a64" stroke-width="1.5" marker-end="url(#arrowhead)" />
<rect x="521.5" y="286.0" width="39.8" height="14" fill="#ffffff" opacity="0.85"/>
<text x="541.4" y="297.0" text-anchor="middle" font-family="Arial,Helvetica,sans-serif" font-size="8.5" fill="#546e7a">success</text>
<line x1="321.7" y1="275.0" x2="240.0" y2="315.0" stroke="#455a64" stroke-width="1.5" marker-end="url(#arrowhead)" />
<rect x="267.4" y="286.0" width="27.0" height="14" fill="#ffffff" opacity="0.85"/>
<text x="280.9" y="297.0" text-anchor="middle" font-family="Arial,Helvetica,sans-serif" font-size="8.5" fill="#546e7a">auth</text>
<line x1="240.0" y1="369.0" x2="316.1" y2="409.0" stroke="#455a64" stroke-width="1.5" marker-end="url(#arrowhead)" />
<line x1="240.0" y1="369.0" x2="495.0" y2="409.0" stroke="#455a64" stroke-width="1.5" marker-end="url(#arrowhead)" />
<line x1="495.0" y1="463.0" x2="410.0" y2="503.0" stroke="#455a64" stroke-width="1.5" marker-end="url(#arrowhead)" />
<rect x="0" y="567.0" width="820" height="30" fill="#f5f7fa" />
<text x="10" y="587.0" font-family="Arial,Helvetica,sans-serif" font-size="10" fill="#9e9e9e">Diagram Type: Authentication Architecture</text>
</svg>