<svg xmlns="http://www.w3.org/2000/svg" width="820" height="435" viewBox="0 0 820 435">
<defs><marker id="arrowhead" markerWidth="10" markerHeight="7" refX="10" refY="3.5" orient="auto"><polygon points="0 0, 10 3.5, 0 7" fill="#455a64" /></marker></defs>
<rect x="0" y="0" width="820" height="30" fill="#1a2744" />
<text x="10" y="20" font-family="Arial,Helvetica,sans-serif" font-size="14" font-weight="bold" fill="#ffffff">Role-Based Access Control (RBAC)</text>
<rect x="285.0" y="50.0" width="250.0" height="76.0" rx="6" fill="#fff8e1" stroke="#f57f17" stroke-width="1.2" />
<text x="410.0" y="66.0" text-anchor="middle" font-family="Arial,Helvetica,sans-serif" font-size="11" font-weight="700" fill="#1a2744">Identity Sources</text>
<rect x="295.0" y="80.0" width="110.0" height="38.0" rx="4" fill="#ffffff" stroke="#f57f17" stroke-width="1" />
<text x="350.0" y="95.5" text-anchor="middle" font-family="Arial,Helvetica,sans-serif" font-size="9.5" fill="#37474f">Local Accounts</text>
<text x="350.0" y="109.5" text-anchor="middle" font-family="Arial,Helvetica,sans-serif" font-size="9.5" fill="#37474f">(break-glass only)</text>
<rect x="415.0" y="80.0" width="110.0" height="38.0" rx="4" fill="#ffffff" stroke="#f57f17" stroke-width="1" />
<text x="470.0" y="95.5" text-anchor="middle" font-family="Arial,Helvetica,sans-serif" font-size="9.5" fill="#37474f">Active Directory</text>
<text x="470.0" y="109.5" text-anchor="middle" font-family="Arial,Helvetica,sans-serif" font-size="9.5" fill="#37474f">Groups</text>
<rect x="157.6" y="166.0" width="504.8" height="76.0" rx="6" fill="#e8f5e9" stroke="#2e7d32" stroke-width="1.2" />
<text x="410.0" y="182.0" text-anchor="middle" font-family="Arial,Helvetica,sans-serif" font-size="11" font-weight="700" fill="#1a2744">Unity Roles</text>
<rect x="167.6" y="196.0" width="110.0" height="38.0" rx="4" fill="#ffffff" stroke="#2e7d32" stroke-width="1" />
<text x="222.6" y="211.5" text-anchor="middle" font-family="Arial,Helvetica,sans-serif" font-size="9.5" fill="#37474f">Administrator</text>
<text x="222.6" y="225.5" text-anchor="middle" font-family="Arial,Helvetica,sans-serif" font-size="9.5" fill="#37474f">Full access</text>
<rect x="287.6" y="196.0" width="124.8" height="38.0" rx="4" fill="#ffffff" stroke="#2e7d32" stroke-width="1" />
<text x="350.0" y="211.5" text-anchor="middle" font-family="Arial,Helvetica,sans-serif" font-size="9.5" fill="#37474f">Storage Administrator</text>
<text x="350.0" y="225.5" text-anchor="middle" font-family="Arial,Helvetica,sans-serif" font-size="9.5" fill="#37474f">Provisioning only</text>
<rect x="422.4" y="196.0" width="110.0" height="38.0" rx="4" fill="#ffffff" stroke="#2e7d32" stroke-width="1" />
<text x="477.4" y="211.5" text-anchor="middle" font-family="Arial,Helvetica,sans-serif" font-size="9.5" fill="#37474f">Operator</text>
<text x="477.4" y="225.5" text-anchor="middle" font-family="Arial,Helvetica,sans-serif" font-size="9.5" fill="#37474f">ACK alerts · read</text>
<rect x="542.4" y="196.0" width="110.0" height="38.0" rx="4" fill="#ffffff" stroke="#2e7d32" stroke-width="1" />
<text x="597.4" y="211.5" text-anchor="middle" font-family="Arial,Helvetica,sans-serif" font-size="9.5" fill="#37474f">Viewer</text>
<text x="597.4" y="225.5" text-anchor="middle" font-family="Arial,Helvetica,sans-serif" font-size="9.5" fill="#37474f">Read-only</text>
<rect x="222.1" y="282.0" width="375.8" height="91.0" rx="6" fill="#fce4ec" stroke="#c62828" stroke-width="1.2" />
<text x="410.0" y="298.0" text-anchor="middle" font-family="Arial,Helvetica,sans-serif" font-size="11" font-weight="700" fill="#1a2744">Actions</text>
<rect x="232.1" y="312.0" width="115.8" height="53.0" rx="4" fill="#ffffff" stroke="#c62828" stroke-width="1" />
<text x="290.0" y="327.5" text-anchor="middle" font-family="Arial,Helvetica,sans-serif" font-size="9.5" fill="#37474f">Create LUNs</text>
<text x="290.0" y="341.5" text-anchor="middle" font-family="Arial,Helvetica,sans-serif" font-size="9.5" fill="#37474f">Manage pools</text>
<text x="290.0" y="355.5" text-anchor="middle" font-family="Arial,Helvetica,sans-serif" font-size="9.5" fill="#37474f">Configure replication</text>
<rect x="357.9" y="312.0" width="110.0" height="53.0" rx="4" fill="#ffffff" stroke="#c62828" stroke-width="1" />
<text x="412.9" y="335.0" text-anchor="middle" font-family="Arial,Helvetica,sans-serif" font-size="9.5" fill="#37474f">View health</text>
<text x="412.9" y="349.0" text-anchor="middle" font-family="Arial,Helvetica,sans-serif" font-size="9.5" fill="#37474f">Acknowledge alerts</text>
<rect x="477.9" y="312.0" width="110.0" height="53.0" rx="4" fill="#ffffff" stroke="#c62828" stroke-width="1" />
<text x="532.9" y="335.0" text-anchor="middle" font-family="Arial,Helvetica,sans-serif" font-size="9.5" fill="#37474f">Read capacity</text>
<text x="532.9" y="349.0" text-anchor="middle" font-family="Arial,Helvetica,sans-serif" font-size="9.5" fill="#37474f">Audit review</text>
<line x1="410.0" y1="126.0" x2="410.0" y2="166.0" stroke="#455a64" stroke-width="1.5" marker-end="url(#arrowhead)" />
<rect x="370.7" y="137.0" width="78.5" height="14" fill="#ffffff" opacity="0.85"/>
<text x="410.0" y="148.0" text-anchor="middle" font-family="Arial,Helvetica,sans-serif" font-size="8.5" fill="#546e7a">CN=Unity-Admins</text>
<line x1="410.0" y1="242.0" x2="410.0" y2="282.0" stroke="#455a64" stroke-width="1.5" marker-end="url(#arrowhead)" />
<rect x="273.6" y="387.0" width="14" height="14" rx="3" fill="#e8f5e9" stroke="#2e7d32" stroke-width="1" />
<text x="293.6" y="398.0" font-family="Arial,Helvetica,sans-serif" font-size="9.5" fill="#37474f">Storage</text>
<rect x="346.5" y="387.0" width="14" height="14" rx="3" fill="#fff8e1" stroke="#f57f17" stroke-width="1" />
<text x="366.5" y="398.0" font-family="Arial,Helvetica,sans-serif" font-size="9.5" fill="#37474f">Management / Security</text>
<rect x="483.0" y="387.0" width="14" height="14" rx="3" fill="#fce4ec" stroke="#c62828" stroke-width="1" />
<text x="503.0" y="398.0" font-family="Arial,Helvetica,sans-serif" font-size="9.5" fill="#37474f">Other</text>
<rect x="0" y="405.0" width="820" height="30" fill="#f5f7fa" />
<text x="10" y="425.0" font-family="Arial,Helvetica,sans-serif" font-size="10" fill="#9e9e9e">Diagram Type: Role-Based Access Control (RBAC)</text>
</svg>